<?xml version="1.0" encoding="UTF-8" standalone="no"?>
<svg width="500px" height="90px" viewBox="0 0 500 90" version="1.1" xmlns="http://www.w3.org/2000/svg" xmlns:xlink="http://www.w3.org/1999/xlink">
    <!-- Generator: Sketch 41 (35326) - http://www.bohemiancoding.com/sketch -->
    <title>Slice 1@1x</title>
    <desc>Created with Sketch.</desc>
    <defs>
        <polygon id="path-1" points="0.0235059477 0.351022153 0.0235059477 108.519517 74.2875206 108.519517 74.2875206 0.351022153 0.0235059477 0.351022153"></polygon>
    </defs>
    <g id="Page-1" stroke="none" stroke-width="1" fill="none" fill-rule="evenodd">
        <g id="Logo">
            <g id="Group">
                <g id="Group-3" transform="translate(0.000000, 4.950495)">
                    <g id="Group-2">
                        <g id="raindrop" transform="translate(54.455446, 37.217751) scale(-1, -1) rotate(90.000000) translate(-54.455446, -37.217751) translate(17.237695, -17.237695)">
                            <mask id="mask-2" fill="white">
                                <use xlink:href="#path-1"></use>
                            </mask>
                            <g id="Clip-2"></g>
                            <path d="M65.8793361,94.9072227 C65.1110834,95.8517701 64.2879835,96.7606667 63.4092528,97.6374386 C56.1572762,104.889807 46.6506874,108.519517 37.1456656,108.519517 C27.6394686,108.519517 18.1344469,104.889807 10.8793361,97.6374386 C3.71393974,90.4724339 0,80.9646698 0,71.3617067 C0,64.6817081 1.79977206,57.9558729 5.48472113,51.9477527 L37.1456656,0.351022153 L68.8038678,51.9477527 C77.1394686,65.5373246 75.8203932,82.7887314 65.8793361,94.9072227 Z" id="Fill-1" fill="#425B76" mask="url(#mask-2)"></path>
                            <path d="M65.8793361,94.9072227 L12.117316,41.1420685 L37.1456656,0.351022153 L68.8038678,51.9477527 C77.1394686,65.5373246 75.8203932,82.7887314 65.8793361,94.9072227 Z" id="Fill-3" fill="#EE7846" mask="url(#mask-2)"></path>
                        </g>
                    </g>
                </g>
                <path d="M181.544554,22.6930693 C180.039596,20.7920697 178.000013,19.3861432 175.425743,18.4752475 C172.851472,17.5643519 170.415853,17.1089109 168.118812,17.1089109 C166.77227,17.1089109 165.386146,17.2673251 163.960396,17.5841584 C162.534646,17.9009917 161.188125,18.3960362 159.920792,19.0693069 C158.653459,19.7425776 157.623766,20.6336578 156.831683,21.7425743 C156.0396,22.8514907 155.643564,24.1980119 155.643564,25.7821782 C155.643564,28.3168444 156.59405,30.257419 158.49505,31.6039604 C160.396049,32.9505018 162.792065,34.0990051 165.683168,35.049505 C168.574272,36.0000048 171.683152,36.9504903 175.009901,37.9009901 C178.33665,38.8514899 181.44553,40.1980111 184.336634,41.9405941 C187.227737,43.683177 189.623753,46.0197873 191.524752,48.950495 C193.425752,51.8812028 194.376238,55.8019556 194.376238,60.7128713 C194.376238,65.386162 193.504959,69.4653291 191.762376,72.950495 C190.019793,76.435661 187.663381,79.3267212 184.693069,81.6237624 C181.722757,83.9208036 178.277247,85.6237568 174.356436,86.7326733 C170.435624,87.8415897 166.297051,88.3960396 161.940594,88.3960396 C156.47522,88.3960396 151.405964,87.5643648 146.732673,85.9009901 C142.059383,84.2376154 137.70299,81.5445731 133.663366,77.8217822 L146.851485,63.3267327 C148.752485,65.8613988 151.1485,67.8217752 154.039604,69.2079208 C156.930708,70.5940663 159.920777,71.2871287 163.009901,71.2871287 C164.514859,71.2871287 166.039596,71.1089127 167.584158,70.7524752 C169.128721,70.3960378 170.514845,69.8613897 171.742574,69.1485149 C172.970303,68.43564 173.960392,67.524758 174.712871,66.4158416 C175.46535,65.3069251 175.841584,64.0000075 175.841584,62.4950495 C175.841584,59.9603834 174.871297,57.9604034 172.930693,56.4950495 C170.990089,55.0296956 168.55447,53.7821834 165.623762,52.7524752 C162.693055,51.7227671 159.52477,50.6930745 156.118812,49.6633663 C152.712854,48.6336582 149.544569,47.2475335 146.613861,45.5049505 C143.683154,43.7623675 141.247534,41.4653608 139.306931,38.6138614 C137.366327,35.762362 136.39604,32.0000234 136.39604,27.3267327 C136.39604,22.8118586 137.28712,18.8515022 139.069307,15.4455446 C140.851494,12.0395869 143.227708,9.1881303 146.19802,6.89108911 C149.168332,4.59404792 152.59404,2.87129287 156.475248,1.72277228 C160.356455,0.574251683 164.356415,0 168.475248,0 C173.227747,0 177.82176,0.673260594 182.257426,2.01980198 C186.693091,3.36634337 190.693051,5.62374653 194.257426,8.79207921 L181.544554,22.6930693 Z M216.29703,2.13861386 L234.831683,2.13861386 L234.831683,69.1485149 L269.168317,69.1485149 L269.168317,86.2574257 L216.29703,86.2574257 L216.29703,2.13861386 Z M286.574257,2.13861386 L305.108911,2.13861386 L305.108911,86.2574257 L286.574257,86.2574257 L286.574257,2.13861386 Z M384.415842,24 C382.59405,21.7821671 380.356449,20.0792139 377.70297,18.8910891 C375.049492,17.7029644 371.980215,17.1089109 368.49505,17.1089109 C365.009884,17.1089109 361.782193,17.7821715 358.811881,19.1287129 C355.841569,20.4752543 353.267338,22.3564236 351.089109,24.7722772 C348.91088,27.1881309 347.207927,30.0593893 345.980198,33.3861386 C344.752469,36.7128879 344.138614,40.3168123 344.138614,44.1980198 C344.138614,48.1584356 344.752469,51.7821618 345.980198,55.0693069 C347.207927,58.3564521 348.891078,61.2079087 351.029703,63.6237624 C353.168328,66.039616 355.683154,67.9207853 358.574257,69.2673267 C361.465361,70.6138681 364.574241,71.2871287 367.90099,71.2871287 C371.702989,71.2871287 375.069292,70.4950574 378,68.9108911 C380.930708,67.3267248 383.346525,65.1089251 385.247525,62.2574257 L400.693069,73.7821782 C397.128695,78.7723022 392.613889,82.4554337 387.148515,84.8316832 C381.683141,87.2079327 376.059435,88.3960396 370.277228,88.3960396 C363.702937,88.3960396 357.643592,87.3663469 352.09901,85.3069307 C346.554428,83.2475145 341.762396,80.2970489 337.722772,76.4554455 C333.683148,72.6138422 330.534665,67.9604234 328.277228,62.4950495 C326.019791,57.0296756 324.891089,50.9307267 324.891089,44.1980198 C324.891089,37.4653129 326.019791,31.366364 328.277228,25.9009901 C330.534665,20.4356162 333.683148,15.7821974 337.722772,11.9405941 C341.762396,8.09899069 346.554428,5.14852515 352.09901,3.08910891 C357.643592,1.02969267 363.702937,0 370.277228,0 C372.653477,0 375.1287,0.217819604 377.70297,0.653465347 C380.277241,1.08911109 382.811869,1.78217347 385.306931,2.73267327 C387.801993,3.68317307 390.198008,4.95048713 392.49505,6.53465347 C394.792091,8.1188198 396.851476,10.0593945 398.673267,12.3564356 L384.415842,24 Z M418.930693,2.13861386 L437.465347,2.13861386 L437.465347,37.0693069 L470.138614,2.13861386 L494.376238,2.13861386 L456.950495,41.2277228 L497.584158,86.2574257 L471.683168,86.2574257 L437.465347,46.3366337 L437.465347,86.2574257 L418.930693,86.2574257 L418.930693,2.13861386 Z" id="SLICK" fill="#425B76"></path>
            </g>
        </g>
    </g>
</svg>