<?xml version="1.0" encoding="UTF-8" standalone="no"?>
<svg width="156px" height="156px" viewBox="0 0 156 156" version="1.1" xmlns="http://www.w3.org/2000/svg" xmlns:xlink="http://www.w3.org/1999/xlink">
    <!-- Generator: Sketch 3.8.3 (29802) - http://www.bohemiancoding.com/sketch -->
    <title>Slice 1</title>
    <desc>Created with Sketch.</desc>
    <defs>
        <polygon id="path-1" points="99.9998047 90.8203125 99.9998047 0.15234375 0.01171875 0.15234375 0.01171875 90.8203125"></polygon>
    </defs>
    <g id="Page-1" stroke="none" stroke-width="1" fill="none" fill-rule="evenodd">
        <rect id="Rectangle-1" fill="#425B76" x="0" y="0" width="156" height="156"></rect>
        <g id="id-card" transform="translate(28.000000, 33.000000)">
            <path d="M98.5335937,82.9265625 C98.5400391,86.3677734 95.7298828,89.1886719 92.2886719,89.1951172 L7.82304688,89.3539063 C4.38183594,89.3603516 1.56113281,86.55 1.5546875,83.1087891 L1.46640625,36.1833984 C1.45996094,32.7421875 4.2703125,29.9214844 7.71132812,29.9150391 L92.1769531,29.75625 C95.6181641,29.7498047 98.4390625,32.5599609 98.4455078,36.0011719 L98.5335937,82.9265625" id="Fill-1" fill="#D6D6D6"></path>
            <path d="M45.3396484,76.7699219 C45.3429688,78.4904297 43.9378906,79.9007812 42.2171875,79.9041016 L14.0619141,79.9570312 C12.3414063,79.9603516 10.9308594,78.5550781 10.9277344,76.8345703 L10.8630859,42.4226563 C10.8597656,40.7019531 12.2650391,39.2914062 13.9855469,39.2882813 L42.1408203,39.2353516 C43.8613281,39.2320312 45.271875,40.6373047 45.275,42.3578125 L45.3396484,76.7699219" id="Fill-2" fill="#29ABE2"></path>
            <path d="M28.078125,47.0828125 C24.6224609,47.0892578 21.8265625,49.8958984 21.8330078,53.3513672 L21.8359375,54.9154297 C21.8423828,58.3708984 24.6490234,61.1669922 28.1044922,61.1605469 C31.5599609,61.1541016 34.3558594,58.3474609 34.3494141,54.8919922 L34.3464844,53.3279297 C34.3400391,49.8722656 31.5335938,47.0763672 28.078125,47.0828125" id="Fill-3" fill="#FBB03B"></path>
            <g id="Group-7">
                <mask id="mask-2" fill="white">
                    <use xlink:href="#path-1"></use>
                </mask>
                <g id="Clip-5"></g>
                <path d="M34.38125,64.3283203 L33.0537109,64.3308594 C31.9132813,66.1919922 30.1375,67.4134766 28.1162109,67.4171875 C26.0951172,67.4208984 24.3146484,66.20625 23.1671875,64.3494141 L21.8394531,64.3519531 C19.0673828,64.3572266 17.1662109,67.0982422 17.1697266,69.0021484 L17.1759766,72.3900391 C17.1775391,73.1076172 17.765625,73.69375 18.4832031,73.6923828 L37.7791016,73.6558594 C38.4958984,73.6544922 39.0759766,73.0722656 39.0746094,72.3554688 L39.0681641,68.9611328 C39.0648437,67.0570312 37.1533203,64.3230469 34.38125,64.3283203" id="Fill-4" fill="#6B6D7B" mask="url(#mask-2)"></path>
                <path d="M95.6650391,86.3138672 C94.7585938,87.2238281 93.5585938,87.7263672 92.2859375,87.7287109 L7.8203125,87.8875 L7.81113281,89.3539062 L7.81113281,87.8875 C5.17480469,87.8875 3.02597656,85.7425781 3.02109375,83.1060547 L2.9328125,36.1806641 C2.93046875,34.9080078 3.42832031,33.70625 4.33496094,32.7962891 C5.24140625,31.8863281 6.44160156,31.3839844 7.71425781,31.3814453 L51.0992188,31.2998047 L48.9142578,33.4933594 C48.3427734,34.0669922 48.3445313,34.9955078 48.9181641,35.5669922 C49.2044922,35.8519531 49.5787109,35.9945312 49.953125,35.9945312 C50.3292969,35.9945312 50.7054688,35.8505859 50.9919922,35.5630859 L55.246875,31.2919922 L92.1888672,31.2226562 C94.8251953,31.2226562 96.9740234,33.3675781 96.9789063,36.0039062 L97.0671875,82.9292969 C97.0695313,84.2019531 96.5716797,85.4039062 95.6650391,86.3138672 L95.6650391,86.3138672 Z M92.1742188,28.2898437 L58.1742188,28.3537109 L83.7779297,2.65371094 C84.3494141,2.08007812 84.3476563,1.1515625 83.7740234,0.579882812 C83.2001953,0.0083984375 82.2716797,0.009765625 81.7,0.583984375 L54.0263672,28.3617187 L45.85625,28.3771484 L18.0785156,0.703320313 C17.5044922,0.131835938 16.5761719,0.133203125 16.0044922,0.707226562 C15.4330078,1.28085937 15.4347656,2.209375 16.0083984,2.78105469 L41.7083984,28.3845703 L7.70839844,28.4486328 C5.65234375,28.4525391 3.71640625,29.2613281 2.25683594,30.7261719 C0.79765625,32.1912109 -0.00390625,34.1302734 1.11022286e-14,36.1863281 L0.08828125,83.1115234 C0.0962890625,87.3621094 3.56074219,90.8203125 7.81113281,90.8203125 C7.81210938,90.8203125 92.2914063,90.6615234 92.2914063,90.6615234 C94.3474609,90.6576172 96.2833984,89.8486328 97.7427734,88.3837891 C99.2021484,86.91875 100.003711,84.9798828 99.9998047,82.9238281 L99.9119141,35.9984375 C99.9039063,31.7480469 96.4392578,28.2898437 92.1742188,28.2898437 Z" id="Fill-6" fill="#0A0A08" mask="url(#mask-2)"></path>
            </g>
            <path d="M24.6960938,49.9585937 C25.5992188,49.0521484 26.8011719,48.5515625 28.0900391,48.5492188 C30.7261719,48.5492188 32.875,50.6941406 32.8800781,53.3306641 L32.8830078,54.8947266 C32.8853516,56.1742187 32.3894531,57.378125 31.4863281,58.2845703 C30.5832031,59.1910156 29.38125,59.6916016 28.1017578,59.6939453 L28.0925781,61.1603516 L28.0925781,59.6939453 C25.45625,59.6939453 23.3074219,57.5490234 23.3023438,54.9125 L23.2994141,53.3484375 C23.2970703,52.0689453 23.7931641,50.8650391 24.6960938,49.9585937 L24.6960938,49.9585937 Z M28.0925781,62.6269531 L28.1074219,62.6269531 C30.1703125,62.6230469 32.1082031,61.8160156 33.5642578,60.3544922 C35.0201172,58.8929687 35.8199219,56.9521484 35.8160156,54.8892578 L35.8130859,53.3251953 C35.8050781,49.0744141 32.340625,45.6164062 28.0753906,45.6164062 C26.0125,45.6203125 24.0746094,46.4273437 22.6185547,47.8888672 C21.1626953,49.3501953 20.3628906,51.2910156 20.3667969,53.3541016 L20.3697266,54.9181641 C20.3775391,59.16875 23.8419922,62.6269531 28.0925781,62.6269531 L28.0925781,62.6269531 Z" id="Fill-8" fill="#0A0A08"></path>
            <path d="M18.6425781,72.2253906 L18.6365234,68.9992187 C18.6345703,67.9091797 19.8814453,65.821875 21.8425781,65.8181641 L22.39375,65.8171875 C23.8580078,67.7765625 25.9035156,68.8835938 28.1191406,68.8835938 C30.3287109,68.8794922 32.3730469,67.7648437 33.8328125,65.7958984 L34.3892578,65.7949219 C36.3472656,65.7949219 37.6001953,67.8757813 37.6023438,68.9638672 L37.6083984,72.1898437 L18.6425781,72.2253906 L18.6425781,72.2253906 Z M34.3783203,62.8619141 L33.0507812,62.8644531 C32.5416016,62.8654297 32.0691406,63.1304687 31.803125,63.5648437 C30.8755859,65.0785156 29.5308594,65.9482422 28.1066406,65.9509766 C26.6919922,65.9509766 25.3460938,65.0863281 24.4146484,63.5787109 C24.1474609,63.1462891 23.6753906,62.8830078 23.1673828,62.8830078 L23.1644531,62.8830078 L21.8369141,62.8855469 C18.3763672,62.8919922 15.6982422,66.1802734 15.7033203,69.0048828 L15.7099609,72.3925781 C15.7128906,73.9177734 16.9556641,75.1585937 18.4808594,75.1585937 L18.4861328,75.1585937 L37.7820313,75.1220703 C39.30625,75.1191406 40.5439453,73.8769531 40.5412109,72.3525391 L40.5347656,68.9580078 C40.5294922,66.1388672 37.8435547,62.8619141 34.3783203,62.8619141 L34.3783203,62.8619141 Z" id="Fill-9" fill="#0A0A08"></path>
            <path d="M14.0591797,78.490625 L14.0560547,79.9570312 L14.0560547,78.490625 C13.1414062,78.490625 12.3958984,77.7464844 12.3941406,76.8318359 L12.3294922,42.4199219 C12.3277344,41.5035156 13.071875,40.7564453 13.9882812,40.7546875 L42.1466797,40.7017578 C43.0613281,40.7017578 43.8068359,41.4458984 43.8085938,42.3605469 L43.8732422,76.7724609 C43.875,77.6890625 43.1308594,78.4359375 42.2144531,78.4376953 L14.0591797,78.490625 Z M42.1382812,37.7689453 L13.9830078,37.821875 C11.4494141,37.8265625 9.3921875,39.8917969 9.396875,42.4253906 L9.46152344,76.8373047 C9.46621094,79.3662109 11.5275391,81.4234375 14.05625,81.4234375 L14.0648438,81.4234375 L42.2201172,81.3705078 C44.7537109,81.3658203 46.8111328,79.3005859 46.80625,76.7671875 L46.7416016,42.3550781 C46.7367188,39.8263672 44.6755859,37.7689453 42.1382812,37.7689453 L42.1382812,37.7689453 Z" id="Fill-10" fill="#0A0A08"></path>
            <path d="M51.5316406,43.8125 L51.5347656,43.8125 L79.6898437,43.7595703 C80.4998047,43.7580078 81.1550781,43.1001953 81.1535156,42.2904297 C81.1519531,41.4814453 80.4958984,40.8267578 79.6871094,40.8267578 L79.6841797,40.8267578 L51.5289063,40.8796875 C50.7191406,40.88125 50.0636719,41.5390625 50.0652344,42.3488281 C50.0667969,43.1580078 50.7230469,43.8125 51.5316406,43.8125" id="Fill-11" fill="#0A0A08"></path>
            <path d="M89.0839844,47.0658203 L89.0810547,47.0658203 L51.5408203,47.1365234 C50.7308594,47.1380859 50.0753906,47.7957031 50.0771484,48.6056641 C50.0785156,49.4144531 50.7347656,50.0693359 51.5435547,50.0693359 L51.5464844,50.0693359 L89.0867187,49.9986328 C89.8966797,49.9970703 90.5519531,49.3394531 90.5503906,48.5294922 C90.5486328,47.7207031 89.8923828,47.0658203 89.0839844,47.0658203" id="Fill-12" fill="#0A0A08"></path>
            <path d="M57.8296875,65.6994141 L57.8326172,65.6994141 L71.9103516,65.6730469 C72.7201172,65.6712891 73.3755859,65.0136719 73.3740234,64.2037109 C73.3724609,63.3949219 72.7162109,62.7400391 71.9076172,62.7400391 L71.9046875,62.7400391 L57.8269531,62.7666016 C57.0171875,62.7681641 56.3617188,63.4257812 56.3632812,64.2357422 C56.3648438,65.0445312 57.0210937,65.6994141 57.8296875,65.6994141" id="Fill-13" fill="#0A0A08"></path>
            <path d="M51.5724609,65.7105469 C51.9595703,65.7105469 52.3369141,65.5541016 52.6105469,65.2822266 C52.8824219,65.0085938 53.0388672,64.63125 53.0388672,64.2441406 C53.0388672,63.8589844 52.8824219,63.4794922 52.6105469,63.2078125 C52.3369141,62.9339844 51.9595703,62.7777344 51.5724609,62.7777344 C51.1873047,62.7777344 50.8099609,62.9339844 50.5361328,63.2078125 C50.2625,63.4814453 50.1060547,63.8589844 50.1060547,64.2441406 C50.1060547,64.6292969 50.2625,65.0085938 50.5361328,65.2822266 C50.8097656,65.5542969 51.1871094,65.7105469 51.5724609,65.7105469" id="Fill-14" fill="#0A0A08"></path>
            <path d="M82.8685547,68.9761719 L82.865625,68.9761719 L57.8386719,69.0230469 C57.0289062,69.0246094 56.3734375,69.6824219 56.375,70.4921875 C56.3765625,71.3009766 57.0328125,71.9558594 57.8414063,71.9558594 L57.8443359,71.9558594 L82.8712891,71.9089844 C83.6810547,71.9074219 84.3365234,71.2496094 84.3349609,70.4398438 C84.3332031,69.6308594 83.6769531,68.9761719 82.8685547,68.9761719" id="Fill-15" fill="#0A0A08"></path>
            <path d="M51.5839844,71.9671875 C51.9710938,71.9671875 52.3484375,71.8107422 52.6220703,71.5390625 C52.8939453,71.2652344 53.0503906,70.8878906 53.0503906,70.5007812 C53.0503906,70.115625 52.8939453,69.7382812 52.6220703,69.4644531 C52.3484375,69.1908203 51.9710938,69.034375 51.5839844,69.034375 C51.1988281,69.034375 50.8214844,69.1908203 50.5476563,69.4644531 C50.2740234,69.7382812 50.1175781,70.115625 50.1175781,70.5007812 C50.1175781,70.8878906 50.2740234,71.2652344 50.5476563,71.5390625 C50.8214844,71.8109375 51.1990234,71.9671875 51.5839844,71.9671875" id="Fill-16" fill="#0A0A08"></path>
            <path d="M78.1876953,75.2416016 L78.1847656,75.2416016 L57.8503906,75.2798828 C57.040625,75.2814453 56.3851563,75.9392578 56.3867187,76.7490234 C56.3882813,77.5580078 57.0445312,78.2126953 57.853125,78.2126953 L57.8560547,78.2126953 L78.1904297,78.1744141 C79.0003906,78.1730469 79.6556641,77.5152344 79.6541016,76.7052734 C79.6523438,75.8964844 78.9962891,75.2416016 78.1876953,75.2416016" id="Fill-17" fill="#0A0A08"></path>
            <path d="M51.5957031,75.2910156 C51.2105469,75.2910156 50.8332031,75.4474609 50.559375,75.7212891 C50.2857422,75.9929688 50.1292969,76.3722656 50.1292969,76.7574219 C50.1292969,77.1447266 50.2857422,77.5220703 50.559375,77.7957031 C50.8332031,78.0675781 51.2105469,78.2240234 51.5957031,78.2240234 C51.9828125,78.2240234 52.3601563,78.0675781 52.6339844,77.7957031 C52.9056641,77.5220703 53.0621094,77.1447266 53.0621094,76.7574219 C53.0621094,76.3722656 52.9056641,75.9949219 52.6339844,75.7212891 C52.3601563,75.4476562 51.9828125,75.2910156 51.5957031,75.2910156" id="Fill-18" fill="#0A0A08"></path>
        </g>
    </g>
</svg>