<?xml version="1.0" encoding="UTF-8" standalone="no"?>
<svg width="156px" height="156px" viewBox="0 0 156 156" version="1.1" xmlns="http://www.w3.org/2000/svg" xmlns:xlink="http://www.w3.org/1999/xlink">
    <!-- Generator: Sketch 41 (35326) - http://www.bohemiancoding.com/sketch -->
    <title>dollar-symbol 2</title>
    <desc>Created with Sketch.</desc>
    <defs>
        <polygon id="path-1" points="0.01171875 93.9335938 100 93.9335938 100 0.177929688 0.01171875 0.177929688"></polygon>
    </defs>
    <g id="Page-1" stroke="none" stroke-width="1" fill="none" fill-rule="evenodd">
        <rect id="Rectangle" fill="#425B76" x="0" y="0" width="156" height="156"></rect>
        <g id="dollar-symbol" transform="translate(28.000000, 31.000000)">
            <path d="M88.9244141,62.6412109 L93.8482422,62.6320312 C96.4300781,62.6271484 98.5384766,60.5105469 98.5335937,57.9291016 L98.5041016,42.2822266 C98.4992187,39.7005859 96.3830078,37.5921875 93.8013672,37.5970703 L90.2375,37.6037109" id="Fill-1" fill="#D6D6D6"></path>
            <path d="M91.2402344,40.7269531 C88.9660156,32.059375 83,24.5990234 74.8484375,19.5417969 L74.9912109,19.6025391 L74.9574219,1.64472656 C68.0443359,1.65761719 62.4505859,7.27265625 62.4634766,14.1855469 C62.4634766,14.2083984 62.4669922,14.2302734 62.4669922,14.2533203 L62.5207031,14.2763672 C58.5421875,13.2277344 54.3279297,12.6363281 49.9429687,12.6445313 C26.6109375,12.6882812 7.72695312,28.8359375 7.76445312,48.7115234 C7.78789062,61.1880859 15.2640625,72.1650391 26.5970703,78.6 L26.596875,78.5998047 L26.6140625,87.7931641 C26.6189453,90.3748047 28.7353516,92.4833984 31.3169922,92.4785156 L34.4462891,92.4726562 C37.028125,92.4677734 39.1365234,90.3513672 39.1316406,87.7697266 L39.1234375,83.4119141 C42.6189453,84.2025391 46.2892578,84.6269531 50.0785156,84.6199219 C53.8666016,84.6128906 57.5371094,84.1806641 61.0289063,83.3777344 L61.0371094,87.7287109 C61.0421875,90.3101562 63.1583984,92.41875 65.7400391,92.4138672 L68.8695313,92.4080078 C71.4511719,92.403125 73.5595703,90.2867187 73.5546875,87.7052734 L73.5375,78.5099609 L73.475,78.5341797 C82.3765625,73.4527344 88.8951172,65.5791016 91.2710937,56.378125" id="Fill-2" fill="#D6D6D6"></path>
            <path d="M50.0078125,47.0673828 C45.7666016,47.0753906 42.1796875,44.5738281 42.1740234,41.6056641 C42.1683594,38.6375 45.7460937,36.1226562 49.9869141,36.1146484 C53.5136719,36.1080078 56.7113281,37.8628906 57.5898438,40.2878906 C57.7425781,40.7078125 57.8197266,41.1416016 57.8205078,41.5763672 C57.8240234,43.3044922 59.2277344,44.7029297 60.9558594,44.6998047 C62.6839844,44.6964844 64.0826172,43.2927734 64.0792969,41.5646484 C64.0771484,40.4041016 63.8734375,39.2576172 63.4740234,38.1552734 C61.9806641,34.0347656 57.9892578,31.0726562 53.1052734,30.1710937 L53.1046875,29.85 C53.1013672,28.121875 51.6976562,26.7232422 49.9693359,26.7265625 C48.2412109,26.7298828 46.8425781,28.1335937 46.8458984,29.8617187 L46.8464844,30.1638672 C40.5873047,31.3660156 35.9046875,36.0435547 35.9152344,41.6173828 C35.9273437,48.0886719 42.2546875,53.340625 50.0195312,53.3261719 C54.2605469,53.3181641 57.8476562,55.8197266 57.8533203,58.7878906 C57.8589844,61.7560547 54.2810547,64.2708984 50.0402344,64.2789063 C45.7992187,64.2869141 42.2121094,61.7855469 42.2064453,58.8171875 C42.203125,57.0890625 40.7994141,55.690625 39.0710937,55.69375 C37.3429687,55.696875 35.9443359,57.1007813 35.9476562,58.8289063 C35.9582031,64.4027344 40.6583984,69.0628906 46.9220703,70.2414063 L46.9226562,70.5435547 C46.9259766,72.271875 48.3296875,73.6705078 50.0578125,73.6669922 C51.7859375,73.6636719 53.1845703,72.2599609 53.18125,70.5318359 L53.1806641,70.2296875 C59.4398437,69.0275391 64.1226562,64.35 64.1121094,58.7761719 C64.0998047,52.3048828 57.7722656,47.0527344 50.0078125,47.0673828" id="Fill-3" fill="#29ABE2"></path>
            <path d="M34.4833984,92.4785156 L31.25625,92.4785156 C28.7011719,92.4785156 26.6109375,90.3880859 26.6109375,87.8333984 L26.6109375,77.1740234 C26.6109375,74.6189453 28.7013672,72.5287109 31.25625,72.5287109 L34.4833984,72.5287109 C37.0382812,72.5287109 39.1285156,74.6191406 39.1285156,77.1740234 L39.1285156,87.8333984 C39.1285156,90.3880859 37.0382812,92.4785156 34.4833984,92.4785156" id="Fill-4" fill="#D6D6D6"></path>
            <path d="M68.9064453,92.4785156 L65.6792969,92.4785156 C63.1242187,92.4785156 61.0339844,90.3880859 61.0339844,87.8333984 L61.0339844,77.1740234 C61.0339844,74.6189453 63.1244141,72.5287109 65.6792969,72.5287109 L68.9064453,72.5287109 C71.4613281,72.5287109 73.5515625,74.6191406 73.5515625,77.1740234 L73.5515625,87.8333984 C73.5515625,90.3880859 71.4613281,92.4785156 68.9064453,92.4785156" id="Fill-5" fill="#D6D6D6"></path>
            <polyline id="Fill-6" fill="#E9BC82" points="26.5966797 78.5998047 26.5966797 78.5998047 26.5971797 78.6003047 26.5966797 78.5998047"></polyline>
            <path id="Fill-7" fill="#E9BC82"></path>
            <path id="Fill-8" fill="#DCA973"></path>
            <path d="M67.1136719,19.6867187 L75.0769531,19.6867187 C75.0003906,19.6384766 74.9253906,19.5892578 74.8484375,19.5417969 L74.9912109,19.6025391 L74.9574219,1.64472656 C68.1150391,1.65761719 62.56875,7.15898437 62.4685547,13.9746094 L62.4685547,14.2539063 L62.5208984,14.2763672 C62.5035156,14.271875 62.4859375,14.2675781 62.4685547,14.2628906 L62.4685547,15.0414062 C62.4685547,17.5962891 64.5587891,19.6867187 67.1136719,19.6867187" id="Fill-9" fill="#D6D6D6"></path>
            <path d="M76.5859375,32.9357422 C78.3142578,32.9357422 79.7152344,34.3369141 79.7152344,36.0652344 C79.7152344,37.7935547 78.3142578,39.1945312 76.5859375,39.1945312 C74.8576172,39.1945312 73.4564453,37.7935547 73.4564453,36.0652344 C73.4564453,34.3369141 74.8576172,32.9357422 76.5859375,32.9357422" id="Fill-10" fill="#FBB03B"></path>
            <g id="Group-14">
                <mask id="mask-2" fill="white">
                    <use xlink:href="#path-1"></use>
                </mask>
                <g id="Clip-12"></g>
                <path d="M76.5898438,37.7269531 L76.5865234,39.1939453 L76.5865234,37.7269531 C75.6714844,37.7269531 74.9259766,36.9826172 74.9242188,36.0679687 C74.9224609,35.1509766 75.6667969,34.4039062 76.5867188,34.4021484 C77.5015625,34.4021484 78.2474609,35.1464844 78.2492188,36.0613281 C78.2511719,36.978125 77.5064453,37.7251953 76.5898438,37.7269531 L76.5898438,37.7269531 Z M76.578125,31.4683594 C74.0435547,31.4730469 71.9857422,33.5388672 71.9904297,36.0732422 C71.9951172,38.6029297 74.0570313,40.6607422 76.5865234,40.6607422 L76.5953125,40.6607422 C79.1296875,40.6560547 81.1876953,38.5904297 81.1830078,36.0560547 C81.1783203,33.5263672 79.1166016,31.4683594 76.578125,31.4683594 L76.578125,31.4683594 Z" id="Fill-11" fill="#0A0A08" mask="url(#mask-2)"></path>
                <path d="M96.1216797,60.2113281 C95.5107422,60.8248047 94.7023437,61.1632812 93.8455078,61.1648437 L91.209375,61.1699219 C91.8042969,59.7310547 92.3011719,58.2544922 92.6910156,56.7447266 C92.8935547,55.9603516 92.421875,55.1601562 91.6373047,54.9578125 C90.8533203,54.7552734 90.0529297,55.2267578 89.8503906,56.0113281 C89.3255859,58.04375 88.5886719,60.0123047 87.6587891,61.9017578 C87.6222656,61.9642578 87.5896484,62.0291016 87.5626953,62.0970703 C84.5066406,68.2015625 79.4072266,73.4583984 72.7474609,77.2601562 C72.1451172,77.6042969 71.8744141,78.3152344 72.0708984,78.9601562 L72.0875,87.7078125 C72.0890625,88.5646484 71.7533203,89.3744141 71.1425781,89.9875 C70.5314453,90.6009766 69.7232422,90.9394531 68.8664062,90.9410156 L65.7369141,90.946875 L65.7306641,90.946875 C64.8761719,90.946875 64.0689453,90.6115234 63.4572266,90.0019531 C62.84375,89.3910156 62.5052734,88.5824219 62.5037109,87.7257812 L62.4955078,83.375 C62.4947266,82.9287109 62.2908203,82.5070312 61.9412109,82.2292969 C61.5917969,81.9515625 61.1347656,81.8486328 60.6998047,81.9480469 C57.2525391,82.7408203 53.678125,83.1460937 50.0751953,83.1527344 C46.496875,83.1521484 42.9148438,82.7658203 39.4464844,81.9810547 C39.0113281,81.8824219 38.5544922,81.9876953 38.2060547,82.2667969 C37.8576172,82.5458984 37.6550781,82.9681641 37.6558594,83.4144531 L37.6640625,87.7724609 C37.665625,88.6291016 37.3300781,89.4388672 36.7191406,90.0521484 C36.1080078,90.6654297 35.2998047,91.0039062 34.4427734,91.0054687 L31.3134766,91.0115234 L31.3074219,91.0115234 C29.5308594,91.0115234 28.0835938,89.5675781 28.0802734,87.7904297 L28.0632812,78.5970703 C28.0623047,78.0701172 27.7789063,77.5841797 27.3205078,77.3240234 C16.0148437,70.9046875 9.25214844,60.2070312 9.23046875,48.7083984 C9.1953125,29.6738281 27.4597656,14.1537109 49.9457031,14.1113281 L50.0324219,14.1113281 C53.6966797,14.1113281 57.3794922,14.5482422 60.9988281,15.4083984 L61.0025391,17.3179687 C61.0041016,18.1269531 61.6605469,18.7818359 62.4695312,18.7818359 L62.4724609,18.7818359 C63.2826172,18.7802734 63.9380859,18.1222656 63.9365234,17.3121094 L63.9314453,14.6638672 C64.0041016,14.4001953 64.0037109,14.1308594 63.9339844,13.8816406 C64.0041016,11.0423828 65.1402344,8.3828125 67.1525391,6.36289062 C68.8867188,4.62226562 71.0984375,3.53046875 73.49375,3.21015625 L73.5232422,18.9132813 C73.2046875,19.5849609 73.4388672,20.3933594 74.0753906,20.7880859 C81.0701172,25.1279297 86.2162109,31.1667969 88.8326172,38.0238281 C88.8513672,38.0869141 88.875,38.1478516 88.9017578,38.2072266 C89.2570312,39.1566406 89.5650391,40.1212891 89.8216797,41.0994141 C90.0273438,41.8830078 90.8298828,42.3525391 91.6128906,42.1458984 C92.3966797,41.9404297 92.8650391,41.1384766 92.6595703,40.3548828 C92.5460937,39.9228516 92.4214844,39.4939453 92.2904297,39.0669922 L93.8044922,39.0640625 L93.8107422,39.0640625 C94.6652344,39.0640625 95.4724609,39.3994141 96.0841797,40.0089844 C96.6974609,40.6197266 97.0361328,41.428125 97.0376953,42.2849609 L97.0669922,57.9318359 C97.0683594,58.7884766 96.7326172,59.5980469 96.1216797,60.2113281 L96.1216797,60.2113281 Z M99.9710938,42.2792969 C99.9679687,40.6386719 99.3228516,39.0941406 98.1542969,37.9302734 C96.9886719,36.7691406 95.4464844,36.1300781 93.8105469,36.1300781 L93.7984375,36.1300781 L91.2371094,36.1349609 C88.4166016,29.3039063 83.2974609,23.2826172 76.4566406,18.8259766 L76.4242188,1.64199219 C76.4226562,0.8328125 75.7662109,0.177929688 74.9572266,0.177929688 L74.9542969,0.177929688 C71.2189453,0.184960938 67.7097656,1.64628906 65.0734375,4.29238281 C62.8576172,6.51679687 61.4810547,9.3546875 61.1027344,12.4199219 C57.4464844,11.5951172 53.7308594,11.1777344 50.0320312,11.1777344 L49.9398438,11.1777344 C38.3072266,11.1996094 27.3675781,15.0878906 19.1365234,22.1263672 C14.8599609,25.7832031 11.5794922,30.0642578 9.40351562,34.7292969 C9.37089844,34.7271484 9.33847656,34.7244141 9.30527344,34.7244141 L9.28984375,34.7244141 C7.59667969,34.7244141 6.00410156,34.0666016 4.80390625,32.8710937 C3.60117187,31.6726562 2.93691406,30.0777344 2.93378906,28.3798828 C2.93125,26.9910156 3.36816406,25.6712891 4.19726562,24.5634766 C4.6828125,23.9150391 4.55058594,22.9955078 3.90195313,22.5101563 C3.253125,22.0248047 2.33398438,22.1568359 1.8484375,22.8056641 C0.635546875,24.4261719 -0.0037109375,26.3556641 0,28.3851563 C0.0046875,30.8666016 0.975390625,33.1978516 2.73359375,34.9496094 C4.23261719,36.4427734 6.15136719,37.3597656 8.22246094,37.5955078 C6.9484375,41.1498047 6.28984375,44.8878906 6.29707031,48.7142578 C6.3203125,61.0240234 13.3443359,72.4546875 25.13125,79.4455078 L25.146875,87.7958984 C25.1533203,91.1896484 27.9158203,93.9455078 31.3078125,93.9453125 L31.3193359,93.9453125 L34.4486328,93.9394531 C36.0892578,93.9363281 37.6337891,93.2914062 38.7976563,92.1226563 C39.9619141,90.9542969 40.6011719,89.4074219 40.5980469,87.7669922 L40.5933594,85.2138672 C43.6771484,85.7935547 46.8271484,86.0867188 49.9832031,86.0867188 C50.0158203,86.0867188 50.0484375,86.0865234 50.0808594,86.0865234 C53.2824219,86.0806641 56.4646484,85.7775391 59.5650391,85.1845703 L59.5697266,87.73125 C59.5728516,89.3716797 60.2179688,90.9160156 61.3865234,92.0800781 C62.5519531,93.2414063 64.0943359,93.8804687 65.7302734,93.8804687 L65.7423828,93.8804687 L68.8716797,93.8746094 C70.5123047,93.8714844 72.0568359,93.2263672 73.2208984,92.0578125 C74.3849609,90.8894531 75.0240234,89.3425781 75.0210937,87.7021484 L75.0052734,79.3382812 C81.5359375,75.4330078 86.6158203,70.1820312 89.8296875,64.1060547 L93.8505859,64.0984375 C95.4912109,64.0953125 97.0357422,63.4501953 98.1996094,62.2816406 C99.3636719,61.1132812 100.003125,59.5664062 100,57.9259766 L99.9710938,42.2792969 L99.9710938,42.2792969 Z" id="Fill-13" fill="#0A0A08" mask="url(#mask-2)"></path>
            </g>
            <path d="M52.9039062,68.7890625 C52.2119141,68.9220703 51.7125,69.5277344 51.7138672,70.2322266 L51.7144531,70.534375 C51.7152344,70.9785156 51.5431641,71.3960937 51.2294922,71.7109375 C50.9160156,72.0255859 50.4990234,72.1992187 50.0548828,72.2 L50.0515625,73.6667969 L50.0515625,72.2 C49.1365234,72.2 48.3908203,71.4554687 48.3890625,70.5408203 L48.3884766,70.2386719 C48.3871094,69.5339844 47.8851562,68.9300781 47.1929687,68.7998047 C41.5357422,67.7355469 37.4232422,63.5408203 37.4142578,58.8263672 C37.4134766,58.3822266 37.5855469,57.9644531 37.8990234,57.6498047 C38.2125,57.3351562 38.6294922,57.1613281 39.0767578,57.1605469 C39.9917969,57.1605469 40.7375,57.9052734 40.7392578,58.8199219 C40.7464844,62.6388672 44.9095703,65.7457031 50.0197266,65.7457031 L50.0427734,65.7457031 C52.3921875,65.7414062 54.6435547,65.0658203 56.3826172,63.8433594 C58.253125,62.5289062 59.3236328,60.6853516 59.3201172,58.7849609 C59.3128906,54.9662109 55.1498047,51.859375 50.0398437,51.859375 L49.9873047,51.859375 C43.0476562,51.859375 37.3927734,47.2636719 37.3820313,41.6146484 C37.3732422,36.9001953 41.4701172,32.6900391 47.1232422,31.6044922 C47.8152344,31.4716797 48.3148438,30.865625 48.3134766,30.1609375 L48.3126953,29.8589844 C48.3109375,28.9421875 49.0554688,28.1949219 49.9753906,28.1931641 C50.8904297,28.1931641 51.6359375,28.9376953 51.6376953,29.8523437 L51.6382813,30.1734375 C51.6394531,30.8798828 52.1441406,31.4851562 52.8390625,31.6132812 C57.2708984,32.4314453 60.8173828,35.1294922 62.0949219,38.6542969 C62.4367187,39.5976562 62.6107422,40.5777344 62.6126953,41.5669922 C62.6144531,42.4837891 61.8699219,43.2310547 60.95,43.2328125 C60.0349609,43.2328125 59.2894531,42.4884766 59.2876953,41.5734375 C59.2865234,40.9664062 59.1791016,40.3648437 58.9691406,39.7880859 C57.8724609,36.7615234 54.1873047,34.6476562 50.0072266,34.6476562 L49.984375,34.6476562 C47.6351562,34.6519531 45.3837891,35.3277344 43.6445312,36.55 C41.7742188,37.8646484 40.7035156,39.7083984 40.7070312,41.6085937 C40.7142578,45.4277344 44.8777344,48.5345703 49.9878906,48.534375 L50.0404297,48.534375 C56.9798828,48.534375 62.6345703,53.1300781 62.6451172,58.7787109 C62.6539062,63.4933594 58.5572266,67.7033203 52.9039062,68.7890625 L52.9039062,68.7890625 Z M50.0404297,45.6005859 L49.9878906,45.6005859 C46.6107422,45.6007812 43.6449219,43.7326172 43.6408203,41.603125 C43.6390625,40.6736328 44.2554687,39.7068359 45.3316406,38.9503906 C46.5646484,38.0835937 48.2625,37.5849609 50.0072266,37.5816406 C52.8816406,37.5816406 55.5486328,38.9599609 56.2115234,40.7896484 C56.3054687,41.0476562 56.3533203,41.3134766 56.3539062,41.5791016 C56.3585937,44.1087891 58.4205078,46.1667969 60.9587891,46.1667969 C63.4931641,46.1621094 65.5511719,44.0962891 65.5464844,41.5617187 C65.5439453,40.2326172 65.3107422,38.9183594 64.8533203,37.6552734 C63.3105469,33.3986328 59.4785156,30.2107422 54.4857422,28.9695312 C54.0708984,26.8583984 52.2037109,25.2595703 49.9666016,25.2595703 C47.7371094,25.2636719 45.8761719,26.8630859 45.4640625,28.9730469 C42.5505859,29.7308594 39.9230469,31.2193359 37.9757813,33.2310547 C35.6951172,35.5869141 34.4423828,38.5662109 34.4480469,41.6201172 C34.4617188,48.8837891 41.4326172,54.7931641 49.9871094,54.7931641 L50.0396484,54.7931641 C53.4164063,54.7931641 56.3820312,56.6613281 56.3861328,58.790625 C56.3878906,59.7203125 55.7716797,60.6871094 54.6953125,61.4433594 C53.4623047,62.3099609 51.7646484,62.8085937 50.0195312,62.8119141 C46.6425781,62.8119141 43.6769531,60.9439453 43.6728516,58.8144531 C43.6681641,56.2845703 41.6064453,54.2265625 39.0679687,54.2265625 C37.8404297,54.2289062 36.6871094,54.709375 35.8205078,55.5791016 C34.9541016,56.4486328 34.4783203,57.6041016 34.4804688,58.8314453 C34.4861328,61.8853516 35.7501953,64.8599609 38.0392578,67.2074219 C39.9939453,69.2117187 42.6273438,70.6902344 45.54375,71.4373047 C45.9636719,73.5416016 47.8265625,75.1333984 50.0509766,75.1335937 L50.0599609,75.1335937 C51.2876953,75.13125 52.4408203,74.6509766 53.3074219,73.78125 C53.9605469,73.1259766 54.3917969,72.3085937 54.5634766,71.4199219 C57.4765625,70.6619141 60.1041016,69.1736328 62.0509766,67.1621094 C64.33125,64.80625 65.5839844,61.8269531 65.5783203,58.7730469 C65.5652344,51.5097656 58.5947266,45.6005859 50.0404297,45.6005859 L50.0404297,45.6005859 Z" id="Fill-15" fill="#0A0A08"></path>
            <path d="M32.1431641,21.2255859 C27.1876953,23.4757812 22.8291016,26.6894531 19.5384766,30.5191406 C19.0103516,31.1335937 19.0804688,32.0597656 19.6951172,32.5876953 C19.971875,32.8253906 20.3119141,32.9419922 20.6503906,32.9419922 C21.0630859,32.9419922 21.4734375,32.76875 21.7636719,32.43125 C24.778125,28.9230469 28.7867187,25.971875 33.35625,23.8972656 C34.0939453,23.5621094 34.4203125,22.6927734 34.0855469,21.9550781 C33.7501953,21.2169922 32.8806641,20.890625 32.1431641,21.2255859" id="Fill-16" fill="#0A0A08"></path>
            <path d="M38.4279297,21.9564453 C38.5597656,21.9564453 38.6939453,21.9384766 38.8271484,21.9007813 C39.9939453,21.5714844 41.1964844,21.2912109 42.4007813,21.0673828 C43.1972656,20.9193359 43.7232422,20.1539062 43.5751953,19.3574219 C43.4271484,18.5607422 42.6615234,18.034375 41.8648437,18.1830078 C40.5730469,18.4230469 39.2826172,18.7240234 38.0300781,19.0773437 C37.2503906,19.2974609 36.7966797,20.1080078 37.0167969,20.8875 C37.1994141,21.5341797 37.7876953,21.9564453 38.4279297,21.9564453" id="Fill-17" fill="#0A0A08"></path>
        </g>
    </g>
</svg>