<?xml version="1.0" encoding="UTF-8" standalone="no"?>
<svg width="156px" height="156px" viewBox="0 0 156 156" version="1.1" xmlns="http://www.w3.org/2000/svg" xmlns:xlink="http://www.w3.org/1999/xlink">
    <!-- Generator: Sketch 3.8.3 (29802) - http://www.bohemiancoding.com/sketch -->
    <title>Slice 1</title>
    <desc>Created with Sketch.</desc>
    <defs>
        <polygon id="path-1" points="0 118.519997 99.9655986 118.519997 99.9655986 0 0 0"></polygon>
    </defs>
    <g id="Page-1" stroke="none" stroke-width="1" fill="none" fill-rule="evenodd">
        <rect id="Rectangle-1" fill="#425B76" x="0" y="0" width="156" height="156"></rect>
        <g id="Group" transform="translate(28.000000, 16.000000)">
            <g id="racing">
                <path d="M49.9827993,20.2944661 C76.6266501,20.2944661 98.2257621,41.8938095 98.2257621,68.5376603 C98.2257621,95.1815111 76.6266501,116.780623 49.9827993,116.780623 C23.338717,116.780623 1.73960503,95.1815111 1.73960503,68.5376603 C1.73960503,41.8938095 23.338717,20.2944661 49.9827993,20.2944661" id="Fill-1" fill="#D6D6D6"></path>
                <path d="M49.9827993,27.248025 C72.7863244,27.248025 91.2722031,45.7341352 91.2722031,68.5376603 C91.2722031,91.3411855 72.7863244,109.827296 49.9827993,109.827296 C27.1790427,109.827296 8.69316397,91.3411855 8.69316397,68.5376603 C8.69316397,45.7341352 27.1790427,27.248025 49.9827993,27.248025" id="Fill-2" fill="#D6D6D6"></path>
                <g id="Group-6">
                    <mask id="mask-2" fill="white">
                        <use xlink:href="#path-1"></use>
                    </mask>
                    <g id="Clip-4"></g>
                    <path d="M49.9198355,35.1384012 L49.9827993,68.5374288 L73.643511,92.1097136 C79.6762252,86.054314 83.3989568,77.6972653 83.3815955,68.4746966 C83.3468728,50.0288647 68.3656674,35.1036785 49.9198355,35.1384012" id="Fill-3" fill="#FBB03B" mask="url(#mask-2)"></path>
                    <path d="M82.9274231,101.358672 C74.1606471,110.158318 62.4915201,115.017638 50.0698374,115.041018 L49.9807159,115.041018 C24.3875727,115.041018 3.52712732,94.2189991 3.47921006,68.6249299 C3.43082982,42.982712 24.2530803,22.0822198 49.8952982,22.0338396 L49.9846512,22.0338396 C75.5775629,22.0338396 96.4377768,42.8558586 96.4859255,68.4499277 C96.509537,80.8716104 91.6941991,92.5587932 82.9274231,101.358672 L82.9274231,101.358672 Z M44.1887455,9.17210513 C44.1859677,7.65426213 44.7741695,6.22646654 45.8454792,5.15075868 C46.9167888,4.07551379 48.3427325,3.48198787 49.8714553,3.47897857 C52.9985776,3.47897857 55.5476835,6.02345475 55.5537021,9.15057708 C55.5583318,11.6774605 53.904376,13.8263298 51.6207827,14.5670798 L51.6105974,9.15821607 C51.6087455,8.19732446 50.8293376,7.42578706 49.867983,7.42208331 C48.9070914,7.42393518 48.1297669,8.2040375 48.1316188,9.16469763 L48.1418041,14.5735614 C45.855896,13.8406819 44.1933752,11.6969051 44.1887455,9.17210513 L44.1887455,9.17210513 Z M85.291573,33.1587469 C82.6220952,30.4948248 79.7040033,28.1697958 76.5900756,26.2044935 L80.0405816,20.2021038 L83.8894722,22.4143999 C84.1626237,22.5718093 84.4607756,22.6461158 84.7547607,22.6461158 C85.3570831,22.6461158 85.9427385,22.3329174 86.2645018,21.7731882 C86.7432114,20.9403075 86.4561708,19.8770997 85.6232901,19.3983901 L74.9699165,13.2744711 C74.1370357,12.7952985 73.073828,13.0828021 72.5948869,13.9156828 C72.1161772,14.7487951 72.4032178,15.8120028 73.2360986,16.2907124 L77.0243402,18.4682859 L73.5844825,24.4526198 C66.8820841,20.8532693 59.4079168,18.8344942 51.6281902,18.5847225 L51.6274957,18.1546246 C53.4113143,17.8101758 55.0509181,16.9430354 56.3613511,15.6277412 C58.0886874,13.8939233 59.0373104,11.5915797 59.0326807,9.14455849 C59.0231898,4.10236598 54.9134163,0 49.853631,0 C47.4066098,0.00462968737 45.1077385,0.961817551 43.3806336,2.69540399 C41.6535287,4.42899042 40.7046743,6.73133395 40.709304,9.17858669 C40.7176374,13.631883 43.9253163,17.3499849 48.1482857,18.1578653 L48.1489801,18.5912041 C35.4513681,19.0465338 23.5852478,24.2146538 14.5730984,33.2608315 C5.1505272,42.7190513 -0.0250003118,55.2805505 1.11872046e-15,68.63118 C0.0252317962,81.9660685 5.2364079,94.4970119 14.6737941,103.916111 C24.1100229,113.333589 36.6490682,118.519997 49.9809474,118.519997 L50.0767819,118.519997 C63.4276429,118.494996 75.9696975,113.272246 85.3925002,103.814026 C94.8150714,94.3560379 99.9905989,81.7943071 99.9655986,68.4436777 C99.9399038,55.1085577 94.7287277,42.5776143 85.291573,33.1587469 L85.291573,33.1587469 Z" id="Fill-5" fill="#0A0A08" mask="url(#mask-2)"></path>
                </g>
                <path d="M86.2031584,46.1776592 C85.697828,45.3607509 84.6260554,45.10797 83.8086841,45.6133003 C82.9915443,46.1188622 82.7389948,47.1908663 83.2443252,48.0075432 C87.0381225,54.1402585 89.0506476,61.2139579 89.0640737,68.4635853 C89.104352,90.0133911 71.6055227,107.578425 50.0559483,107.618703 L49.9814104,107.618703 C28.4658643,107.618703 10.9415716,90.1351519 10.9010619,68.6108094 C10.8603206,47.0607721 28.3593815,29.4959697 49.9089558,29.4556914 L49.9832623,29.4556914 C57.2041856,29.4556914 64.2556625,31.4395125 70.3800444,35.1941889 C71.1994991,35.696973 72.2701143,35.4397938 72.7722039,34.6203392 C73.2742935,33.8013475 73.0175773,32.7305008 72.1983541,32.2284112 C65.5260487,28.137388 57.8465548,25.9764814 49.9827993,25.9764814 L49.9020112,25.9764814 C26.4348204,26.0209264 7.37810128,45.1494057 7.42208331,68.6175224 C7.46629682,92.0597129 26.5487107,111.100228 49.9814104,111.097913 L50.0626614,111.097913 C73.5305467,111.053931 92.5872658,91.9252205 92.5432838,68.4573352 C92.5284688,60.5630238 90.3358488,52.8585296 86.2031584,46.1776592" id="Fill-7" fill="#0A0A08"></path>
                <path d="M75.9808087,39.3569723 C77.0606833,40.3199473 78.0979647,41.353062 79.063949,42.4285384 C79.4074718,42.8109506 79.8820148,43.0053975 80.3586411,43.0053975 C80.7727666,43.0053975 81.1882811,42.8584049 81.5206926,42.55979 C82.2355163,41.9178839 82.2940819,40.8181017 81.6521757,40.1032779 C80.6007737,38.932893 79.4718245,37.8078789 78.2963468,36.7601807 C77.5792083,36.1205894 76.4796575,36.1837846 75.8402977,36.9009232 C75.2009379,37.6182932 75.2639016,38.7180755 75.9808087,39.3569723" id="Fill-8" fill="#0A0A08"></path>
                <path d="M73.6060106,89.6166269 L70.1031891,86.1270001 L80.929713,75.2599664 C79.7859488,80.5743845 77.2886954,85.4994459 73.6060106,89.6166269 L73.6060106,89.6166269 Z M57.7377571,37.8395923 L51.675876,43.9241589 L51.6626813,36.9219883 C53.7467351,37.0314804 55.7780105,37.3437528 57.7377571,37.8395923 L57.7377571,37.8395923 Z M81.6422219,68.4777059 C81.6429164,68.8649792 81.6348144,69.2508637 81.6218513,69.6355907 L67.6388065,83.6714139 L64.5262677,80.5709122 L81.2804118,63.7538044 C81.515137,65.2952588 81.6392126,66.8725933 81.6422219,68.4777059 L81.6422219,68.4777059 Z M80.3887341,59.7190318 L62.0616536,78.1155576 L58.9491148,75.0148244 L78.6903332,55.199068 C79.367425,56.6495491 79.9357191,58.1599846 80.3887341,59.7190318 L80.3887341,59.7190318 Z M76.9660062,52.0006485 L56.4845007,72.5594697 L53.3721934,69.4587366 L74.3722238,48.37977 C75.3183004,49.5221454 76.1854409,50.7318827 76.9660062,52.0006485 L76.9660062,52.0006485 Z M72.007611,45.8237196 L51.7175431,66.1901773 L51.7059689,59.9773684 L68.639282,42.9801657 C69.8272597,43.8500839 70.9527367,44.8003272 72.007611,45.8237196 L72.007611,45.8237196 Z M65.6577633,41.0435674 L51.696941,55.0569366 L51.6853668,48.8438962 L61.4590998,39.0333572 C62.9137476,39.6016513 64.3160799,40.2750393 65.6577633,41.0435674 L65.6577633,41.0435674 Z M61.449609,35.3242831 C57.8537308,34.0782028 53.9960438,33.3987962 49.9839567,33.3987962 L49.9163633,33.3987962 C48.9557031,33.400648 48.1781472,34.1809818 48.179999,35.141642 L48.2045364,48.1295354 L48.2045364,48.1309243 L48.22537,59.2630076 L48.22537,59.2634706 L48.2431943,68.5406696 C48.2441202,69.002018 48.4279188,69.4443846 48.7550062,69.7698516 L66.4151802,87.363821 L66.4154116,87.3640525 L66.4156431,87.3640525 L72.4161809,93.3419049 C72.7423424,93.6666774 73.1837831,93.8493186 73.6437425,93.8493186 L73.6469833,93.8493186 C74.1083317,93.8483927 74.5504668,93.6641311 74.8761653,93.3372752 C81.5005535,86.6881182 85.1390248,77.857221 85.1212005,68.4714558 C85.1156449,65.5274376 84.7436495,62.6676797 84.0522057,59.9333863 C84.0373907,59.8465797 84.0158626,59.761162 83.9880845,59.6769017 C83.2473345,56.8389033 82.158432,54.1397956 80.7718407,51.6268013 C80.7167474,51.4881421 80.6422094,51.356196 80.5505416,51.2325834 C79.2387197,48.9258417 77.6743483,46.7804445 75.8940021,44.8359758 C75.8347421,44.7498637 75.7678431,44.6674552 75.6912218,44.5910654 C75.6444619,44.544537 75.5956187,44.5021754 75.5453866,44.4621286 C71.7599227,40.4454118 67.0429658,37.317595 61.7442886,35.4277567 C61.648454,35.3844691 61.5500732,35.3499779 61.449609,35.3242831 L61.449609,35.3242831 Z" id="Fill-9" fill="#0A0A08"></path>
            </g>
        </g>
    </g>
</svg>