<?xml version="1.0" encoding="UTF-8" standalone="no"?>
<svg width="156px" height="156px" viewBox="0 0 156 156" version="1.1" xmlns="http://www.w3.org/2000/svg" xmlns:xlink="http://www.w3.org/1999/xlink">
    <!-- Generator: Sketch 41 (35326) - http://www.bohemiancoding.com/sketch -->
    <title>trucking 2</title>
    <desc>Created with Sketch.</desc>
    <defs>
        <polygon id="path-1" points="99.9994141 64.0625 99.9994141 0.0421875 0.01171875 0.0421875 0.01171875 64.0625"></polygon>
    </defs>
    <g id="Page-1" stroke="none" stroke-width="1" fill="none" fill-rule="evenodd">
        <rect id="Rectangle" fill="#425B76" x="0" y="0" width="156" height="156"></rect>
        <g id="trucking" transform="translate(28.000000, 46.000000)">
            <path d="M98.5214844,46.8056641 C98.5234375,47.6699219 97.8255859,48.3697266 96.9613281,48.3716797 L89.4478516,48.3833984 C87.8193359,45.5837891 84.7830078,43.7029297 81.3107422,43.7087891 C77.8365234,43.7146484 74.8060547,45.6091797 73.1892578,48.41875 L67.24375,48.4285156 L67.2103516,31.2234375 L98.2927734,31.1648437 C98.4257812,31.6691406 98.4941406,32.1931641 98.4960938,32.7289063 L98.5039063,37.4210938 L95.3757813,37.4269531 C94.5154297,37.4289062 93.8136719,38.1328125 93.815625,38.9931641 L93.8175781,40.5572266 C93.8195313,41.4173828 94.5253906,42.1212891 95.3855469,42.1193359 L98.5136719,42.1134766 L98.5214844,46.8056641" id="Fill-1" fill="#D6D6D6"></path>
            <path d="M98.5039063,37.4210937 L98.5136719,42.1134766 L95.3855469,42.1193359 C94.5253906,42.1212891 93.8195313,41.4173828 93.8175781,40.5572266 L93.815625,38.9931641 C93.8136719,38.1328125 94.5154297,37.4289062 95.3757813,37.4269531 L98.5039063,37.4210937" id="Fill-2" fill="#FBB03B"></path>
            <path d="M98.2927734,31.1648437 L67.2105469,31.2234375 L67.1986328,24.9671875 L89.0958984,24.9259766 L95.0257813,27.1392578 C96.6701172,27.9564453 97.8451172,29.4384766 98.2927734,31.1648437" id="Fill-3" fill="#D6D6D6"></path>
            <path d="M89.4478516,48.3833984 C90.2494141,49.7636719 90.7089844,51.3650391 90.7128906,53.0757812 C90.7226562,58.2587891 86.5289062,62.4681641 81.3458984,62.4779297 C76.1628906,62.4876953 71.9535156,58.2939453 71.94375,53.1109375 C71.9398437,51.4021484 72.3933594,49.7990234 73.1892578,48.4185547 C74.8060547,45.6091797 77.8365234,43.7146484 81.3107422,43.7087891 C84.7830078,43.7029297 87.8193359,45.5837891 89.4478516,48.3833984" id="Fill-4" fill="#3F3F48"></path>
            <path d="M85.7175781,12.1865234 L89.0958984,24.9259766 L67.1986328,24.9671875 L67.1673828,7.76210938 L79.7173828,7.73867188 C82.4798828,7.7328125 84.9179688,9.54121094 85.7175781,12.1865234" id="Fill-5" fill="#29ABE2"></path>
            <path d="M1.53046875,37.6029297 L1.46601563,3.19296875 C1.4640625,2.32890625 2.16386719,1.62695312 3.028125,1.62695312 L65.5916016,1.5078125 C66.4539063,1.5078125 67.1556641,2.20566406 67.1576172,3.06992188 L67.24375,48.4285156 L46.9144531,48.4636719 L26.8824219,48.5007813 C25.2537109,45.7009766 22.2195313,43.8222656 18.7472656,43.828125 C15.2730469,43.8339844 12.2425781,45.7285156 10.6236328,48.5378906 L3.11601563,48.5496094 C2.25195312,48.5496094 1.55,47.8517578 1.54804688,46.9875 L1.53046875,37.6029297" id="Fill-6" fill="#D6D6D6"></path>
            <path d="M50.0503906,54.7160156 C50.0523438,56.4365234 48.6486328,57.8482422 46.928125,57.8501953 L37.5435547,57.8677734 C35.8230469,57.8716797 34.4115234,56.4658203 34.4095703,54.7453125 L34.4056641,53.18125 L34.4037109,51.6171875 C34.3998047,49.8966797 35.8054688,48.4871094 37.5259766,48.4832031 L46.9105469,48.465625 L46.9144531,48.465625 C48.6330078,48.465625 50.040625,49.8693359 50.0445313,51.5878906 L50.0464844,53.1519531 L50.0503906,54.7160156" id="Fill-7" fill="#AAB2C5"></path>
            <path d="M26.8824219,48.5007812 C27.6859375,49.8791016 28.1453125,51.4822266 28.1492187,53.1929687 C28.1589844,58.3759766 23.9654297,62.5873047 18.7824219,62.5951172 C13.5994141,62.6048828 9.39003906,58.4111328 9.38027344,53.2302734 C9.37636719,51.5214844 9.82988281,49.9201172 10.6236328,48.5378906 C12.2425781,45.7285156 15.2728516,43.8339844 18.7472656,43.828125 C22.2195312,43.8222656 25.2537109,45.7009766 26.8824219,48.5007812" id="Fill-8" fill="#3F3F48"></path>
            <path d="M81.3033203,49.8634766 C83.1388672,49.8634766 84.6269531,51.3515625 84.6269531,53.1871094 C84.6269531,55.0228516 83.1388672,56.5109375 81.3033203,56.5109375 C79.4675781,56.5109375 77.9796875,55.0228516 77.9796875,53.1871094 C77.9796875,51.3515625 79.4675781,49.8634766 81.3033203,49.8634766" id="Fill-9" fill="#C3CAD8"></path>
            <path d="M18.7398438,49.6679688 C20.6833984,49.6679688 22.2589844,51.2435547 22.2589844,53.1871094 C22.2589844,55.1308594 20.6833984,56.7064453 18.7398438,56.7064453 C16.7960938,56.7064453 15.2205078,55.1308594 15.2205078,53.1871094 C15.2205078,51.2435547 16.7960938,49.6679688 18.7398438,49.6679688" id="Fill-10" fill="#C3CAD8"></path>
            <path d="M21.8935547,51.7394531 L21.890625,51.7394531 C21.0808594,51.7410156 20.4253906,52.3986328 20.4269531,53.2083984 C20.4277344,53.6525391 20.2556641,54.0701172 19.9423828,54.3847656 C19.6291016,54.6990234 19.2121094,54.8728516 18.7681641,54.8736328 L18.7650391,54.8736328 C17.8501953,54.8736328 17.1048828,54.1300781 17.103125,53.2150391 C17.1013672,52.2986328 17.8455078,51.5517578 18.7619141,51.55 C19.5716797,51.5484375 20.2269531,50.890625 20.2253906,50.0808594 C20.2238281,49.271875 19.5677734,48.6173828 18.7591797,48.6173828 L18.75625,48.6173828 C16.2226562,48.6220703 14.165625,50.6869141 14.1703125,53.2203125 C14.175,55.7511719 16.2351562,57.8064453 18.7646484,57.80625 L18.7734375,57.80625 C20.0005859,57.8039063 21.1535156,57.3238281 22.0197266,56.4544922 C22.8857422,55.5851563 23.3615234,54.4302734 23.3591797,53.203125 C23.3582031,52.3939453 22.7021484,51.7394531 21.8935547,51.7394531" id="Fill-11" fill="#0A0A08"></path>
            <g id="Group-15">
                <mask id="mask-2" fill="white">
                    <use xlink:href="#path-1"></use>
                </mask>
                <g id="Clip-13"></g>
                <path d="M84.4570312,51.6216797 L84.4541016,51.6216797 C83.6443359,51.6232422 82.9890625,52.2810547 82.990625,53.0908203 C82.9914062,53.5347656 82.8193359,53.9523437 82.5058594,54.2669922 C82.1925781,54.5814453 81.7755859,54.7550781 81.3316406,54.7558594 L81.3285156,54.7558594 C80.4136719,54.7558594 79.6683594,54.0125 79.6666016,53.0974609 C79.6648438,52.1808594 80.4089844,51.4339844 81.3253906,51.4322266 C82.1351562,51.4306641 82.7904297,50.7730469 82.7888672,49.9632813 C82.7873047,49.1541016 82.13125,48.4996094 81.3226562,48.4996094 L81.3197266,48.4996094 C78.7863281,48.5042969 76.7291016,50.5693359 76.7337891,53.1027344 C76.7384766,55.6333984 78.7986328,57.6888672 81.328125,57.6886719 L81.3369141,57.6886719 C82.5640625,57.6863281 83.7169922,57.2060547 84.5832031,56.3369141 C85.4492187,55.4673828 85.925,54.3125 85.9228516,53.0855469 C85.921875,52.2765625 85.2654297,51.6216797 84.4570312,51.6216797" id="Fill-12" fill="#0A0A08" mask="url(#mask-2)"></path>
                <path d="M81.3435547,61.0123047 L81.3283203,62.4787109 L81.3283203,61.0123047 C76.9705078,61.0123047 73.41875,57.4669922 73.4105469,53.1089844 C73.4064453,50.9939453 74.2263672,49.0041016 75.7191406,47.5056641 C77.2119141,46.0072266 79.1988281,45.1798828 81.3291016,45.1759766 C85.6869141,45.1759766 89.2386719,48.7212891 89.246875,53.0792969 C89.2550781,57.4451172 85.7097656,61.0041016 81.3435547,61.0123047 L81.3435547,61.0123047 Z M51.5103516,51.5861328 C51.5091797,51.0003906 51.3964844,50.4404297 51.1943359,49.9248047 L67.2458984,49.8947266 L70.9582031,49.8876953 C70.7820313,50.4595703 70.6544922,51.0480469 70.5751953,51.6478516 L51.5103516,51.6837891 L51.5103516,51.5861328 L51.5103516,51.5861328 Z M46.925,56.3847656 L37.5404297,56.4023438 L37.5373047,57.86875 L37.5373047,56.4023438 C36.6226562,56.4023438 35.8773437,55.6582031 35.8755859,54.74375 L35.8726562,53.1841797 C35.8726562,53.1841797 35.8728516,53.1810547 35.8728516,53.1794922 C35.8728516,53.1779297 35.8726562,53.1763672 35.8726562,53.1763672 L35.8697266,51.6154297 C35.8689453,51.1751953 36.0417969,50.7583984 36.3568359,50.4421875 C36.6712891,50.1265625 37.0865234,49.9521484 37.5259766,49.9505859 L46.9166016,49.9330078 C47.8310547,49.9333984 48.5761719,50.6771484 48.5777344,51.5917969 L48.5835937,54.7199219 C48.5853516,55.6361328 47.8414062,56.3830078 46.925,56.3847656 L46.925,56.3847656 Z M29.5113281,51.7251953 C29.4283203,51.1222656 29.2980469,50.5337891 29.1195313,49.9664062 L33.2455078,49.9585937 C33.0425781,50.4822266 32.9357422,51.0435547 32.9369141,51.6207031 L32.9371094,51.7185547 L29.5113281,51.7251953 L29.5113281,51.7251953 Z M24.3748047,58.8001953 C22.8820313,60.2984375 20.8953125,61.1259766 18.7802734,61.1298828 L18.7650391,62.5960938 L18.7650391,61.1298828 C14.4072266,61.1298828 10.8554688,57.584375 10.8470703,53.2265625 C10.8429687,51.1115234 11.6630859,49.1214844 13.1556641,47.6230469 C14.6484375,46.1248047 16.6353516,45.2972656 18.7658203,45.2933594 C23.1234375,45.2933594 26.6753906,48.8388672 26.6835938,53.1966797 C26.6875,55.3117188 25.8677734,57.3017578 24.3748047,58.8001953 L24.3748047,58.8001953 Z M9.37246094,47.0705078 L9.36953125,47.0705078 L3.11269531,47.0826172 C3.10703125,47.0804688 3.07246094,47.0828125 3.04375,47.0539063 C3.01523438,47.0253906 3.01503906,46.9947266 3.01503906,46.9847656 L3.00019531,39.0666016 L51.5851563,38.9753906 C52.3949219,38.9738281 53.0503906,38.3162109 53.0488281,37.5064453 C53.0472656,36.6974609 52.3910156,36.0427734 51.5824219,36.0427734 L51.5794922,36.0427734 L2.99453125,36.1339844 L2.93261719,3.19042969 C2.93261719,3.13652344 2.9765625,3.09257813 3.03027344,3.09238281 L65.59375,2.97480469 C65.6025391,2.97558594 65.6341797,2.97480469 65.6626953,3.00332031 C65.6914062,3.03183594 65.6916016,3.0625 65.6916016,3.07246094 L65.7003906,7.7640625 L65.7003906,7.76523438 L65.7443359,31.2253906 L65.7443359,31.2261719 L65.7738281,46.9644531 L46.6160156,47.0005859 L37.5224609,47.0175781 L37.5185547,47.0175781 L28.1382813,47.0351563 C27.9935547,47.0353516 27.8539063,47.0574219 27.7216797,47.0970703 C25.7644531,44.2400391 22.4789063,42.3605469 18.7654297,42.3605469 L18.7447266,42.3605469 C15.8460938,42.3660156 13.1234375,43.4998047 11.0779297,45.553125 C10.5908203,46.0419922 10.1578125,46.5701172 9.778125,47.1287109 C9.64921875,47.0916016 9.51347656,47.0705078 9.37246094,47.0705078 L9.37246094,47.0705078 Z M79.7197266,9.20488281 L79.7292969,9.20488281 C81.8490234,9.20488281 83.6849609,10.5621094 84.3072266,12.5873047 L87.1914063,23.4630859 L68.6628906,23.4978516 L68.6361328,9.22558594 L79.7197266,9.20488281 L79.7197266,9.20488281 Z M95.9476562,29.7029297 L68.6744141,29.7541016 L68.6681641,26.4304688 L88.8330078,26.3925781 L94.4373047,28.484375 C95.03125,28.790625 95.5410156,29.2078125 95.9476562,29.7029297 L95.9476562,29.7029297 Z M97.0441406,40.6496094 L95.3824219,40.6527344 C95.3824219,40.6527344 95.3824219,40.6527344 95.3822266,40.6527344 C95.3320312,40.6527344 95.284375,40.6054688 95.2841797,40.5550781 L95.28125,38.9912109 C95.28125,38.9658203 95.2912109,38.9429688 95.3111328,38.9230469 C95.3310547,38.903125 95.3537109,38.8931641 95.3789062,38.8931641 L97.0408203,38.8900391 L97.0441406,40.6496094 L97.0441406,40.6496094 Z M97.0271484,46.8773438 C96.9984375,46.9060547 96.9679687,46.9060547 96.9578125,46.9060547 L90.7015625,46.9179688 C90.5568359,46.9181641 90.4171875,46.9402344 90.2851562,46.9794922 C88.3279297,44.1224609 85.0423828,42.2431641 81.3289062,42.2431641 L81.3082031,42.2431641 C78.4097656,42.2486328 75.6871094,43.3824219 73.6414062,45.4357422 C73.1542969,45.9248047 72.7210937,46.4527344 72.3414062,47.0113281 C72.2125,46.9742188 72.0765625,46.953125 71.9353516,46.953125 L71.9324219,46.953125 L68.7064453,46.9591797 L68.6796875,32.6869141 L97.0253906,32.6335938 C97.0261719,32.6664063 97.0289062,32.6986328 97.0289062,32.7314453 L97.0349609,35.9574219 L95.3732422,35.9605469 C94.5654297,35.9621094 93.8054687,36.2789063 93.2333984,36.853125 C92.6611328,37.4275391 92.346875,38.1886719 92.3484375,38.9966797 L92.3513672,40.5605469 C92.3544922,42.2296875 93.7132812,43.5853516 95.3820312,43.5853516 L95.3875,43.5853516 L97.0494141,43.5822266 L97.0554688,46.8082031 C97.0556641,46.8181641 97.0556641,46.8486328 97.0271484,46.8773438 L97.0271484,46.8773438 Z M98.5335938,51.5955078 L98.5306641,51.5955078 L92.0748047,51.6076172 C91.9916016,51.0046875 91.8615234,50.4162109 91.6830078,49.8488281 L96.9630859,49.8388672 C97.7726562,49.8373047 98.5330078,49.5207031 99.1044922,48.9470703 C99.6757812,48.3736328 99.9896484,47.6121094 99.9880859,46.8027344 L99.9792969,42.1109375 L99.9792969,42.1097656 L99.9617188,32.7257813 C99.9609375,32.3544922 99.9339844,31.9880859 99.8824219,31.6283203 C99.9314453,31.4814453 99.9589844,31.325 99.9587891,31.1619141 C99.9580078,30.7451172 99.7826172,30.3703125 99.5029297,30.1037109 C98.8419922,28.2701172 97.4978516,26.73125 95.6798828,25.8263672 C95.6339844,25.8037109 95.5871094,25.7832031 95.5392578,25.7654297 L90.3191406,23.8169922 L87.1347656,11.8097656 C87.1304687,11.79375 87.1259766,11.7777344 87.1210938,11.7617188 C86.1287109,8.47636719 83.159375,6.27207031 79.7292969,6.27207031 L79.7136719,6.27207031 L68.6298828,6.29277344 L68.6238281,3.06699219 C68.6222656,2.25722656 68.3056641,1.49707031 67.7320313,0.92578125 C67.1599609,0.355859375 66.4007812,0.0421875 65.59375,0.0421875 L65.5875,0.0421875 L3.02402344,0.159765625 C1.35371094,0.163085938 -0.003125,1.52519531 0,3.19589844 L0.0646484375,37.6050781 L0.0646484375,37.60625 L0.0822265625,46.9902344 C0.0837890625,47.7998047 0.400390625,48.5601563 0.974023438,49.1314453 C1.54609375,49.7013672 2.30527344,50.0152344 3.11230469,50.0152344 L3.11855469,50.0152344 L8.3953125,50.0052734 C8.21914062,50.5771484 8.09160156,51.165625 8.01210937,51.765625 L1.55761719,51.7775391 C0.747851563,51.7791016 0.092578125,52.4367188 0.094140625,53.2466797 C0.095703125,54.0556641 0.751757813,54.7101563 1.56035156,54.7101563 L1.56328125,54.7101563 L8.01933594,54.6980469 C8.74746094,59.9789063 13.2908203,64.0625 18.7650391,64.0625 L18.7857422,64.0625 C21.6839844,64.0570313 24.4066406,62.9232422 26.4523438,60.8699219 C28.1486328,59.1669922 29.2083984,57.0005859 29.51875,54.6578125 L32.9423828,54.6513672 L32.9425781,54.7490234 C32.9472656,57.2777344 35.0083984,59.3347656 37.5371094,59.3347656 L37.5457031,59.3347656 L46.9302734,59.3171875 C48.1539062,59.3148438 49.3058594,58.8337891 50.1738281,57.9626953 C51.0416016,57.0916016 51.5183594,55.9378906 51.5160156,54.7138672 L51.5158203,54.6162109 L70.5822266,54.5802734 C71.3103516,59.8609375 75.8535156,63.9445313 81.3279297,63.9445313 L81.3486328,63.9445313 C86.834375,63.9341797 91.3714844,59.8332031 92.0800781,54.5398438 L98.5357422,54.5277344 C99.3457031,54.5261719 100.000977,53.8685547 99.9994141,53.0587891 C99.9984375,52.25 99.3423828,51.5955078 98.5335938,51.5955078 L98.5335938,51.5955078 Z" id="Fill-14" fill="#0A0A08" mask="url(#mask-2)"></path>
            </g>
            <path d="M39.0978516,51.7072266 C38.7126953,51.7072266 38.3353516,51.8634766 38.0617188,52.1373047 C37.7880859,52.4089844 37.6316406,52.7882812 37.6316406,53.1734375 C37.6316406,53.5585938 37.7880859,53.9378906 38.0617188,54.2097656 C38.3353516,54.4833984 38.7126953,54.6398437 39.0978516,54.6398437 C39.4849609,54.6398437 39.8623047,54.4833984 40.1361328,54.2097656 C40.4078125,53.9378906 40.5642578,53.5585938 40.5642578,53.1734375 C40.5642578,52.7882812 40.4078125,52.4089844 40.1361328,52.1373047 C39.8623047,51.8634766 39.4849609,51.7072266 39.0978516,51.7072266" id="Fill-16" fill="#0A0A08"></path>
            <path d="M57.8388672,38.9634766 L57.8417969,38.9634766 L60.9691406,38.9576172 C61.7789062,38.9560547 62.434375,38.2984375 62.4328125,37.4884766 C62.43125,36.6794922 61.775,36.025 60.9664063,36.025 L60.9634766,36.025 L57.8361328,36.0308594 C57.0263672,36.0324219 56.3708984,36.6902344 56.3724609,37.5001953 C56.3740234,38.3089844 57.0302734,38.9634766 57.8388672,38.9634766" id="Fill-17" fill="#0A0A08"></path>
        </g>
    </g>
</svg>