<?xml version="1.0" encoding="UTF-8" standalone="no"?>
<svg width="200px" height="197px" viewBox="0 0 200 197" version="1.1" xmlns="http://www.w3.org/2000/svg" xmlns:xlink="http://www.w3.org/1999/xlink">
    <!-- Generator: Sketch 41 (35326) - http://www.bohemiancoding.com/sketch -->
    <title>Slice 1</title>
    <desc>Created with Sketch.</desc>
    <defs></defs>
    <g id="Page-1" stroke="none" stroke-width="1" fill="none" fill-rule="evenodd">
        <g id="truck">
            <polygon id="Fill-1" fill="#29ABE2" points="172.024876 4.14228856 27.7751244 4.14228856 20.8855721 80.860199 178.91592 80.860199"></polygon>
            <polygon id="Fill-2" fill="#D6D6D6" points="20.8855721 168.602985 178.91592 168.602985 178.91592 80.860199 20.8855721 80.860199"></polygon>
            <polygon id="Fill-3" fill="#FBB03B" points="21.1149254 144.508458 45.9223881 144.508458 45.9223881 120.503483 21.1149254 120.503483"></polygon>
            <polygon id="Fill-4" fill="#FBB03B" points="153.879104 144.508458 178.686567 144.508458 178.686567 120.503483 153.879104 120.503483"></polygon>
            <polygon id="Fill-5" fill="#424242" points="25.4313433 192.040299 50.100995 192.040299 50.100995 168.602985 25.4313433 168.602985"></polygon>
            <polygon id="Fill-6" fill="#424242" points="124.006965 192.040299 148.676617 192.040299 148.676617 168.602985 124.006965 168.602985"></polygon>
            <polygon id="Fill-7" fill="#424242" points="50.3069652 192.040299 74.9766169 192.040299 74.9766169 168.602985 50.3069652 168.602985"></polygon>
            <polygon id="Fill-8" fill="#424242" points="148.884577 192.040299 173.554229 192.040299 173.554229 168.602985 148.884577 168.602985"></polygon>
            <polygon id="Fill-9" fill="#D6D6D6" points="3.9800995 81.1303483 20.679602 81.1303483 20.679602 46.4462687 3.9800995 46.4462687"></polygon>
            <polygon id="Fill-10" fill="#D6D6D6" points="179.1199 81.1303483 195.821393 81.1303483 195.821393 46.4462687 179.1199 46.4462687"></polygon>
            <path d="M127.922886,24.6587065 L145.380597,24.6587065 C147.578607,24.6587065 149.360697,22.878607 149.360697,20.678607 C149.360697,18.480597 147.578607,16.6985075 145.380597,16.6985075 L127.922886,16.6985075 C125.724876,16.6985075 123.942786,18.480597 123.942786,20.678607 C123.942786,22.878607 125.724876,24.6587065 127.922886,24.6587065 Z" id="Fill-11" fill="#000000"></path>
            <path d="M43.3945274,24.6587065 L102.656716,24.6587065 C104.854726,24.6587065 106.636816,22.878607 106.636816,20.678607 C106.636816,18.480597 104.854726,16.6985075 102.656716,16.6985075 L43.3945274,16.6985075 C41.1965174,16.6985075 39.4144279,18.480597 39.4144279,20.678607 C39.4144279,22.878607 41.1965174,24.6587065 43.3945274,24.6587065 Z" id="Fill-12" fill="#000000"></path>
            <path d="M128.842289,137.102488 L70.9597015,137.102488 C68.7616915,137.102488 66.979602,138.884577 66.979602,141.082587 C66.979602,143.280597 68.7616915,145.062687 70.9597015,145.062687 L128.842289,145.062687 C131.040299,145.062687 132.822388,143.280597 132.822388,141.082587 C132.822388,138.884577 131.040299,137.102488 128.842289,137.102488 Z" id="Fill-13" fill="#000000"></path>
            <path d="M128.842289,119.897512 L70.9597015,119.897512 C68.7616915,119.897512 66.979602,121.679602 66.979602,123.877612 C66.979602,126.075622 68.7616915,127.857711 70.9597015,127.857711 L128.842289,127.857711 C131.040299,127.857711 132.822388,126.075622 132.822388,123.877612 C132.822388,121.679602 131.040299,119.897512 128.842289,119.897512 Z" id="Fill-14" fill="#000000"></path>
            <path d="M173.554229,196.020398 C175.752239,196.020398 177.534328,194.238308 177.534328,192.040299 L177.534328,172.585075 L178.91592,172.585075 C181.11393,172.585075 182.89602,170.802985 182.89602,168.604975 L182.89602,85.1124378 L195.821891,85.1124378 C198.0199,85.1124378 199.80199,83.3303483 199.80199,81.1323383 L199.80199,46.4462687 C199.80199,44.2482587 198.0199,42.4661692 195.821891,42.4661692 L179.464179,42.4661692 L175.989055,3.78656716 C175.804478,1.73432836 174.084577,0.162189055 172.024876,0.162189055 L27.7751244,0.162189055 C25.7154229,0.162189055 23.9950249,1.73432836 23.8124378,3.78656716 L20.3378109,42.4661692 L3.9800995,42.4661692 C1.78208955,42.4661692 0,44.2482587 0,46.4462687 L0,81.1323383 C0,83.3303483 1.78208955,85.1124378 3.9800995,85.1124378 L16.9054726,85.1124378 L16.9054726,168.604975 C16.9054726,170.802985 18.6875622,172.585075 20.8855721,172.585075 L21.4512438,172.585075 L21.4512438,192.040299 C21.4512438,194.238308 23.2333333,196.020398 25.4313433,196.020398 L74.9766169,196.020398 C77.1746269,196.020398 78.9567164,194.238308 78.9567164,192.040299 L78.9567164,172.585075 L120.026866,172.585075 L120.026866,192.040299 C120.026866,194.238308 121.808955,196.020398 124.006965,196.020398 L173.554229,196.020398 Z M24.8656716,164.624876 L24.8656716,148.488557 L45.9228856,148.488557 C48.1208955,148.488557 49.9029851,146.706468 49.9029851,144.508458 L49.9029851,120.503483 C49.9029851,118.303483 48.1208955,116.523383 45.9228856,116.523383 L24.8656716,116.523383 L24.8656716,84.8402985 L174.935821,84.8402985 L174.935821,116.523383 L153.879104,116.523383 C151.681095,116.523383 149.899005,118.303483 149.899005,120.503483 L149.899005,144.508458 C149.899005,146.706468 151.681095,148.488557 153.879104,148.488557 L174.935821,148.488557 L174.935821,164.624876 L24.8656716,164.624876 Z M157.859204,140.528358 L174.706468,140.528358 L174.706468,124.483582 L157.859204,124.483582 L157.859204,140.528358 Z M25.0950249,140.526368 L25.0950249,124.483582 L41.9427861,124.483582 L41.9427861,140.528358 L25.0950249,140.528358 L25.0950249,140.526368 Z M105.472637,76.8800995 L62.9587065,76.8800995 L92.9104478,66.7119403 C94.9920398,66.0064677 96.1054726,63.7462687 95.4,61.6651741 C94.6945274,59.5835821 92.4323383,58.4681592 90.3507463,59.1736318 L38.6079602,76.8800995 L25.238806,76.8800995 L31.4154229,8.12238806 L168.386567,8.12238806 L174.562687,76.8800995 L129.571144,76.8800995 L159.522886,66.7119403 C161.60398,66.0064677 162.717413,63.7462687 162.012438,61.6651741 C161.304975,59.5835821 159.044776,58.4681592 156.963184,59.1736318 L105.472637,76.8800995 Z M7.960199,77.1522388 L16.6995025,77.1522388 L16.6995025,50.4263682 L7.960199,50.4263682 L7.960199,77.1522388 Z M29.4114428,188.060199 L46.1208955,188.060199 L46.1208955,172.585075 L29.4114428,172.585075 L29.4114428,188.060199 Z M54.2870647,188.060199 L70.9965174,188.060199 L70.9965174,172.585075 L54.2870647,172.585075 L54.2870647,188.060199 Z M127.989055,188.060199 L144.696517,188.060199 L144.696517,172.585075 L127.989055,172.585075 L127.989055,188.060199 Z M152.864677,188.060199 L169.574129,188.060199 L169.574129,172.585075 L152.864677,172.585075 L152.864677,188.060199 Z M183.1,77.1522388 L191.841791,77.1522388 L191.841791,50.4263682 L183.1,50.4263682 L183.1,77.1522388 Z" id="Fill-15" fill="#000000"></path>
        </g>
    </g>
</svg>